<svg width="16" height="17" viewBox="0 0 16 17" fill="none" xmlns="http://www.w3.org/2000/svg">
<path d="M3.8931 4.41073V9.50473H4.99825V3.66487L8.37158 1.34569L11.6698 3.66144V10.8442C11.9514 10.6112 12.2305 10.3751 12.5 10.1278C12.5929 10.0425 12.6842 9.95601 12.7751 9.86955V4.35103L13.435 4.80245L14.0588 3.89025L8.68869 0.217736L8.37843 0L8.06224 0.217472L5.58095 1.91587V1.05138H4.19005V2.86826L2.74194 3.85967L3.36629 4.77147L3.8931 4.41073Z" fill="#CDEFEA"/>
<path d="M8.59872 9.38112V8.71908C9.24073 8.57568 9.64997 8.11068 9.64997 7.51086C9.64997 6.90958 9.32442 6.53118 8.56538 6.24635C8.05412 6.04193 7.89003 5.92146 7.89003 5.75104C7.89003 5.55519 8.06493 5.43867 8.35779 5.43867C8.72288 5.43867 8.96987 5.5536 9.11723 5.6224L9.28132 5.6978L9.51817 4.89104L9.42643 4.84517C9.18287 4.72352 8.92941 4.65525 8.63642 4.63337V4.04883H7.88106V4.68095C7.26067 4.82738 6.87964 5.26338 6.87964 5.83803C6.87964 6.55187 7.46457 6.85962 8.03619 7.06655C8.56076 7.25819 8.63325 7.42624 8.63325 7.57939C8.63325 7.80319 8.4225 7.94791 8.09682 7.94791C7.79671 7.94791 7.46589 7.85433 7.18924 7.69129L7.05269 7.61063L6.81598 8.43386L6.89071 8.48368C7.11517 8.63341 7.47947 8.74201 7.8435 8.77114V9.38125L8.59872 9.38112ZM15.9974 11.9299C15.9677 11.5713 15.7039 11.2925 15.3169 10.9841C15.0459 10.7683 14.5212 10.5166 13.9331 10.5166C13.4356 10.5166 12.7145 10.6969 12.102 11.5548C11.5511 12.2581 10.8604 12.543 10.2998 12.6507C10.35 12.525 10.3827 12.3741 10.3837 12.1609C10.3886 10.9677 9.4379 10.0711 8.12318 10.0652L3.42987 10.0691C2.98939 10.0691 2.55589 10.1991 2.19041 10.4343V9.82371H0V16.1553H2.19028V15.4826C2.27305 15.5235 2.38705 15.6062 2.38705 15.6062C2.76414 15.8142 3.34855 16.0696 3.94468 16.0696H8.2563C11.9705 16.0696 14.5347 13.9889 15.4645 12.9582C15.7428 12.6499 16.0305 12.3311 15.9974 11.9299ZM1.45667 11.2223H0.691035V10.4565H1.45667V11.2223ZM14.8963 12.4452C14.0347 13.4003 11.6634 15.304 8.2563 15.304H3.94468C3.21569 15.304 2.43068 14.7338 2.42356 14.7283C2.35756 14.6796 2.27769 14.6534 2.19568 14.6534C2.19397 14.6534 2.19212 14.654 2.19014 14.654V11.2801C2.27397 11.2814 2.35753 11.2576 2.42673 11.205L2.51042 11.1419C2.77485 10.9427 3.09686 10.835 3.42789 10.8349L8.11936 10.8308C8.86786 10.834 9.62176 11.264 9.61781 12.1578C9.61781 12.6739 9.27368 12.7005 9.25523 12.705H5.8164C5.71613 12.7069 5.6206 12.748 5.55035 12.8196C5.4801 12.8911 5.44075 12.9874 5.44075 13.0877C5.44075 13.188 5.4801 13.2843 5.55035 13.3558C5.6206 13.4274 5.71613 13.4685 5.8164 13.4704H9.46624L9.66961 13.4699C10.2427 13.4697 11.6855 13.3344 12.7108 12.019C12.7141 12.0145 12.7178 12.0099 12.7208 12.0053C13.0615 11.5253 13.4694 11.282 13.9329 11.282C14.3513 11.282 14.709 11.4789 14.8396 11.5829C15.2232 11.8884 15.2339 11.9885 15.2341 11.9925C15.2354 12.0693 14.989 12.3424 14.8963 12.4452Z" fill="#CDEFEA"/>
</svg>
