<svg width="15" height="15" viewBox="0 0 15 15" fill="none" xmlns="http://www.w3.org/2000/svg">
<path d="M3.53405 4.00366V8.62752H4.53721V3.32663L7.5992 1.2215L10.593 3.32352V9.84339C10.8487 9.63188 11.1019 9.41761 11.3466 9.19305C11.4309 9.11564 11.5139 9.03716 11.5963 8.95868V3.94947L12.1953 4.35922L12.7615 3.53121L7.88705 0.197641L7.60542 0L7.31841 0.197401L5.06612 1.73905V0.954346H3.80359V2.60355L2.48914 3.50346L3.05586 4.33111L3.53405 4.00366Z" fill="#003B33"/>
<path d="M7.80513 8.51546V7.91452C8.38789 7.78435 8.75936 7.36227 8.75936 6.8178C8.75936 6.27202 8.46386 5.92854 7.77487 5.67C7.31079 5.48445 7.16185 5.3751 7.16185 5.22041C7.16185 5.04263 7.3206 4.93687 7.58644 4.93687C7.91783 4.93687 8.14203 5.04119 8.27579 5.10364L8.42474 5.17207L8.63972 4.43977L8.55646 4.39814C8.33537 4.28772 8.1053 4.22574 7.83935 4.20588V3.67529H7.15371V4.24907C6.59058 4.38199 6.24471 4.77775 6.24471 5.29937C6.24471 5.94732 6.77566 6.22668 7.29452 6.41451C7.77068 6.58846 7.83648 6.741 7.83648 6.88002C7.83648 7.08316 7.64518 7.21452 7.34956 7.21452C7.07714 7.21452 6.77685 7.12958 6.52573 6.98159L6.40179 6.90837L6.18692 7.65562L6.25476 7.70085C6.4585 7.83676 6.78918 7.93534 7.11961 7.96178V8.51558L7.80513 8.51546ZM14.521 10.829C14.4941 10.5035 14.2545 10.2504 13.9033 9.97049C13.6573 9.77464 13.181 9.54613 12.6472 9.54613C12.1956 9.54613 11.541 9.7098 10.9851 10.4885C10.485 11.1269 9.85811 11.3856 9.34917 11.4833C9.39475 11.3692 9.42442 11.2322 9.42538 11.0387C9.42981 9.95565 8.56686 9.14176 7.37348 9.13637L3.11332 9.13996C2.71349 9.13996 2.32001 9.25793 1.98825 9.47148V8.9172H0V14.6645H1.98813V14.0538C2.06326 14.0909 2.16675 14.166 2.16675 14.166C2.50903 14.3548 3.0395 14.5867 3.58062 14.5867H7.49432C10.8657 14.5867 13.1932 12.698 14.0373 11.7624C14.2898 11.4826 14.551 11.1932 14.521 10.829ZM1.32223 10.1867H0.627258V9.49158H1.32223V10.1867ZM13.5215 11.2968C12.7395 12.1637 10.5869 13.8917 7.49432 13.8917H3.58062C2.91891 13.8917 2.20635 13.3742 2.19989 13.3691C2.13998 13.325 2.06748 13.3011 1.99304 13.3012C1.99148 13.3012 1.98981 13.3017 1.98801 13.3017V10.2392C2.0641 10.2404 2.13995 10.2187 2.20276 10.171L2.27873 10.1137C2.51875 9.93293 2.81105 9.83513 3.11153 9.83506L7.37001 9.83135C8.04943 9.83422 8.73376 10.2246 8.73017 11.0359C8.73017 11.5044 8.4178 11.5285 8.40105 11.5326H5.27959C5.18858 11.5343 5.10187 11.5716 5.0381 11.6366C4.97434 11.7015 4.93861 11.7889 4.93861 11.88C4.93861 11.971 4.97434 12.0584 5.0381 12.1233C5.10187 12.1883 5.18858 12.2256 5.27959 12.2273H8.59259L8.77719 12.2268C9.29737 12.2267 10.607 12.1039 11.5377 10.9099C11.5407 10.9058 11.544 10.9016 11.5468 10.8974C11.8561 10.4617 12.2263 10.2409 12.647 10.2409C13.0268 10.2409 13.3515 10.4196 13.4701 10.514C13.8182 10.7913 13.8279 10.8822 13.8282 10.8858C13.8293 10.9556 13.6056 11.2035 13.5215 11.2968Z" fill="#003B33"/>
</svg>
