<svg width="19" height="15" viewBox="0 0 19 15" fill="none" xmlns="http://www.w3.org/2000/svg">
<path fill-rule="evenodd" clip-rule="evenodd" d="M8.72877 8.64795L9.09998 9.10485L9.47036 8.64897C9.52595 8.57995 10.206 7.73128 10.8726 6.62746C11.2059 6.07554 11.537 5.45801 11.785 4.84089C12.0325 4.2249 12.2 3.60287 12.2 3.04374C12.2 1.36298 10.8071 0 9.09998 0C7.39284 0 6 1.36298 6 3.04374C6 3.60196 6.16744 4.22331 6.41497 4.83881C6.66297 5.45547 6.99405 6.07276 7.32736 6.62466C7.96553 7.68137 8.61605 8.50516 8.7184 8.63477L8.72877 8.64795ZM9.10004 8.94619L9.09998 8.94626L8.80748 8.58625L8.79715 8.57314C8.58886 8.30938 6.1 5.15759 6.1 3.04374C6.1 1.71452 7.00216 0.588855 8.23664 0.224226C7.00221 0.588885 6.1001 1.71453 6.1001 3.04371C6.1001 5.15756 8.58895 8.30934 8.79725 8.57311L8.80758 8.58622L9.10004 8.94619ZM6.94999 3.04374C6.94999 1.89011 7.91153 0.949986 9.09998 0.949986C10.2884 0.949986 11.25 1.89015 11.25 3.04374C11.25 3.76811 10.8661 4.69641 10.3876 5.56761C9.94816 6.36786 9.43745 7.10511 9.09998 7.56636C8.76252 7.10511 8.2518 6.36787 7.81233 5.56762C7.33389 4.69643 6.94999 3.76813 6.94999 3.04374ZM11.35 3.04374C11.35 4.5026 9.86046 6.69921 9.16208 7.65079L9.10004 7.73489L9.10008 7.73494C9.76757 6.83495 11.3501 4.54743 11.3501 3.04371C11.3501 1.83249 10.3413 0.849962 9.10008 0.849962C9.0242 0.849962 8.94919 0.853642 8.87522 0.860814C8.94915 0.853651 9.02413 0.849986 9.09998 0.849986C10.3412 0.849986 11.35 1.83252 11.35 3.04374ZM18.2 14H0V14.95H18.2V14ZM14.825 4.875H12.375V5.82499H14.825V4.875ZM5.82501 4.875H3.37501V5.82499H5.82501V4.875ZM0 12.95H2.31174L4.52436 6.75H2.62499V7.70003H3.17556L1.63831 12H0V12.95ZM1.70876 12.1L3.31751 7.60003H2.72499V6.85H2.72509V7.6H3.31761L1.70885 12.1H1.70876ZM2.24126 12.85L2.24125 12.85H0.1V12.1H0.100098V12.85H2.24126ZM4.0113 12.95H14.1887L12.8596 6.75H11.25V7.70003H12.0904L13.0113 12H5.18869L6.10959 7.70003H6.94999V6.75H5.3404L4.0113 12.95ZM13.135 12.1L12.1712 7.60003H11.35V6.85H11.3501V7.6H12.1713L13.1351 12.1H13.135ZM14.065 12.85L14.065 12.85H4.13501L5.42124 6.85H5.42133L4.13511 12.85H14.065ZM6.84999 7.6H6.02884L6.02883 7.60003H6.84999V7.6ZM15.8883 12.95H18.2V12H16.5617L15.0244 7.70003H15.575V6.75H13.6756L15.8883 12.95ZM18.1 12.85H15.9588L13.8176 6.85H13.8175L15.9588 12.85H18.1V12.85ZM15.475 7.6H14.8826L14.8826 7.60003H15.475V7.6ZM0.1 14.85V14.1H0.100098V14.85H18.1V14.85H0.1ZM12.475 5.72499V4.975H12.4751V5.72496H14.725V5.72499H12.475ZM3.47501 5.72499V4.975H3.47511V5.72496H5.72501V5.72499H3.47501ZM9.10011 4.35001C8.48138 4.35001 7.9751 3.84376 7.9751 3.22499C7.9751 2.72224 8.3093 2.29377 8.76652 2.15077C8.30925 2.29374 7.975 2.72223 7.975 3.22502C7.975 3.84379 8.48128 4.35003 9.10002 4.35003C9.19551 4.35003 9.28832 4.33798 9.37701 4.31531C9.28835 4.33796 9.19557 4.35001 9.10011 4.35001ZM9.02478 2.85765C9.0491 2.85265 9.07427 2.85002 9.10002 2.85002C9.30627 2.85002 9.47505 3.0188 9.47501 3.22502C9.47501 3.39983 9.35379 3.5477 9.19125 3.58871C9.35384 3.54773 9.47511 3.39984 9.47511 3.22499C9.47514 3.01877 9.30637 2.85 9.10011 2.85C9.07433 2.85 9.04914 2.85264 9.02478 2.85765ZM9.37501 3.225V3.22502C9.37501 3.37605 9.25105 3.50001 9.10002 3.50001C8.94899 3.50001 8.82502 3.37605 8.82502 3.22502C8.82502 3.07399 8.94899 2.95002 9.10002 2.95002C9.25106 2.95002 9.37504 3.07403 9.37501 3.225ZM7.875 3.22502C7.875 3.89902 8.42605 4.45003 9.10002 4.45003C9.77402 4.45003 10.325 3.89902 10.325 3.22502C10.325 2.55102 9.77402 2 9.10002 2C8.42602 2 7.875 2.55102 7.875 3.22502Z" fill="#00A991"/>
</svg>
