<svg width="80" height="80" viewBox="0 0 80 80" fill="none" xmlns="http://www.w3.org/2000/svg">
<g clip-path="url(#clip0_341_416)">
<path fill-rule="evenodd" clip-rule="evenodd" d="M43.1616 39.1895H55.1374V21.7417L39.9741 10.725L33.9306 15.1157V22.5522L39.9741 18.1614L48.2504 24.1745V32.5448C48.2504 32.5448 42.0963 32.5448 40.9048 32.5448H40.8953V41.4546H38.6254L38.6305 30.2798H45.9855C45.9855 29.4346 45.9855 26.1158 45.9855 25.3753V25.3289L39.9741 20.961L31.6656 26.9977V13.9621L39.9741 7.92542L57.4025 20.588V41.4546H43.1616V39.1895Z" fill="#003C34"/>
<path fill-rule="evenodd" clip-rule="evenodd" d="M29.4008 18.4069C27.972 19.4455 25.4291 21.2924 24.8495 21.714L24.8106 21.7417C24.8106 23.0202 24.8106 36.1556 24.8106 38.8893V39.1895C25.9508 39.1895 31.6657 39.1895 31.6657 39.1895V30.3956L39.9514 24.3756L41.8768 25.7761L33.9307 31.5493V41.4546H22.5457V20.588L29.4008 15.6073V18.4069Z" fill="#003C34"/>
<path d="M3.99695 47.7778H0.0529785V57.6724H1.87523V54.7031H3.96867C6.61354 54.7031 8.23785 53.4052 8.23785 51.2249C8.23785 49.0757 6.62768 47.7778 3.99695 47.7778ZM1.87523 53.0941V49.3868H3.95453C5.48213 49.3868 6.41559 49.9665 6.41559 51.2249C6.41559 52.5144 5.48212 53.0941 3.94039 53.0941H1.87523Z" fill="#003C34"/>
<path d="M18.4039 57.6724L15.7755 54.1517C17.3726 53.7275 18.2626 52.6699 18.2626 51.0835C18.2626 48.9768 16.6804 47.7778 14.0217 47.7778H9.93628V57.6724H11.7585V54.3638H13.654L16.101 57.6724H18.4039ZM13.9792 49.3868C15.5351 49.3868 16.4403 49.9099 16.4403 51.1118C16.4403 52.3447 15.5351 52.7689 13.9651 52.7689H11.7585V49.3868H13.9792Z" fill="#003C34"/>
<path d="M25.0644 57.8279C28.1193 57.8279 30.3233 55.6816 30.3233 52.7237C30.3233 49.7544 28.1193 47.6223 25.0785 47.6223C22.0236 47.6223 19.8196 49.7686 19.8196 52.7237C19.8196 55.6957 22.0236 57.8279 25.0644 57.8279ZM25.0785 56.1764C23.1126 56.1764 21.7408 54.805 21.7408 52.7237C21.7408 50.6452 23.1126 49.2737 25.0785 49.2737C27.0303 49.2737 28.402 50.6452 28.402 52.7237C28.402 54.805 27.0303 56.1764 25.0785 56.1764Z" fill="#003C34"/>
<path d="M35.9939 47.7778H32.0499V57.6724H33.8722V54.7031H35.9656C38.6105 54.7031 40.2348 53.4052 40.2348 51.2249C40.2348 49.0757 38.6246 47.7778 35.9939 47.7778ZM33.8722 53.0941V49.3868H35.9515C37.4791 49.3868 38.4125 49.9665 38.4125 51.2249C38.4125 52.5144 37.4791 53.0941 35.9373 53.0941H33.8722Z" fill="#003C34"/>
<path d="M43.6989 53.374H49.0293V51.765H43.6989V49.3868H49.6515V47.7778H41.9049V57.6724H49.7929V56.0633H43.6989V53.374Z" fill="#003C34"/>
<path d="M60.0013 57.6724L57.3729 54.1517C58.97 53.7275 59.8599 52.6699 59.8599 51.0835C59.8599 48.9768 58.2778 47.7778 55.619 47.7778H51.5337V57.6724H53.3559V54.3638H55.2514L57.6984 57.6724H60.0013ZM55.5766 49.3868C57.1325 49.3868 58.0377 49.9099 58.0377 51.1118C58.0377 52.3447 57.1325 52.7689 55.5625 52.7689H53.3559V49.3868H55.5766Z" fill="#003C34"/>
<path d="M60.6676 47.7778V49.3868H63.9762V57.6724H65.8125V49.3868H69.1352V47.7778H60.6676Z" fill="#003C34"/>
<path d="M77.8874 47.7778L74.9331 52.7519L71.9506 47.7778H69.9429L74.0008 54.279V57.6724H75.8372V54.3214L79.8951 47.7778H77.8874Z" fill="#003C34"/>
<path d="M23.5738 72.0149C25.7651 72.0149 27.7419 71.0399 27.7419 69.0618C27.7419 67.2393 26.3441 66.448 23.8848 65.9945C22.273 65.6551 21.6226 65.4582 21.6226 64.6661C21.6226 63.6625 22.5134 63.4647 23.6868 63.4647C24.7047 63.4647 25.652 63.6908 26.8099 64.2279L27.1206 62.5612C26.0475 62.0389 24.9027 61.813 23.6868 61.813C21.5379 61.813 19.6884 62.7729 19.6884 64.7368C19.6884 66.4182 20.9873 67.1532 23.4182 67.5919C24.9733 67.918 25.8074 68.1149 25.8074 69.133C25.8074 70.1791 24.7472 70.3629 23.5455 70.3629C22.4003 70.3629 20.7754 70.0798 19.6318 69.4723L19.4623 71.126C20.4649 71.7186 21.9479 72.0149 23.5738 72.0149Z" fill="#003C34"/>
<path d="M36.5196 66.1368H31.2749V61.9684H29.4395V71.8593H31.2749V67.7474H36.5196V71.8593H38.355V61.9684H36.5196V66.1368Z" fill="#003C34"/>
<path d="M45.3229 72.0149C48.3763 72.0149 50.5792 69.8679 50.5792 66.9132C50.5792 63.9452 48.3763 61.813 45.3371 61.813C42.2837 61.813 40.0808 63.9594 40.0808 66.9132C40.0808 69.8828 42.2837 72.0149 45.3229 72.0149ZM45.3371 70.3629C43.3722 70.3629 42.001 68.9923 42.001 66.9132C42.001 64.8358 43.3722 63.4647 45.3371 63.4647C47.2877 63.4647 48.659 64.8358 48.659 66.9132C48.659 68.9923 47.2877 70.3629 45.3371 70.3629Z" fill="#003C34"/>
<path d="M56.247 61.9684H52.3051V71.8593H54.1264V68.8913H56.2187C58.8621 68.8913 60.4858 67.5918 60.4858 65.4151C60.4858 63.2672 58.8762 61.9684 56.247 61.9684ZM54.1264 67.2823V63.5777H56.2045C57.7314 63.5777 58.6645 64.1574 58.6645 65.4151C58.6645 66.7029 57.7314 67.2823 56.1904 67.2823H54.1264Z" fill="#003C34"/>
</g>
<defs>
<clipPath id="clip0_341_416">
<rect width="80" height="80" fill="white"/>
</clipPath>
</defs>
</svg>
