<svg width="16" height="15" viewBox="0 0 16 15" fill="none" xmlns="http://www.w3.org/2000/svg">
<path fill-rule="evenodd" clip-rule="evenodd" d="M7.67364 8.2563L7.99998 8.69251L8.32559 8.25728C8.37446 8.19138 8.97229 7.38115 9.55833 6.32731C9.85135 5.8004 10.1424 5.21083 10.3604 4.62165C10.5781 4.03357 10.7252 3.4397 10.7252 2.90589C10.7252 1.30125 9.50077 0 7.99998 0C6.4992 0 5.27472 1.30125 5.27472 2.90589C5.27472 3.43883 5.42192 4.03204 5.63954 4.61967C5.85756 5.2084 6.14862 5.79774 6.44164 6.32465C7.00266 7.3335 7.57455 8.11998 7.66453 8.24372L7.67364 8.2563ZM8.25712 8.19739L7.99998 8.5411L7.74284 8.19739L7.73376 8.18488C7.5544 7.93822 5.45145 5.04615 5.36536 3.03114C5.45161 5.04614 7.55441 7.93798 7.73375 8.18462L7.74283 8.19714L7.99997 8.54085L8.25711 8.19714C8.35271 8.06822 10.6373 4.9714 10.6373 2.90564L10.6373 2.90589C10.6373 4.97165 8.35272 8.06848 8.25712 8.19739ZM6.10988 2.90589C6.10988 1.80451 6.95519 0.906963 7.99998 0.906963C9.04478 0.906963 9.89009 1.80454 9.89009 2.90589C9.89009 3.59746 9.55259 4.48372 9.13199 5.31546C8.74564 6.07948 8.29665 6.78333 7.99998 7.22369C7.70331 6.78333 7.25433 6.07949 6.86798 5.31548C6.44738 4.48374 6.10988 3.59747 6.10988 2.90589ZM6.02416 3.00637C6.0227 2.97241 6.02195 2.93882 6.02195 2.90564C6.02195 1.74923 6.90876 0.811235 7.99997 0.811235C9.02848 0.811235 9.87539 1.64457 9.96932 2.70859C9.87527 1.64469 9.02841 0.811492 7.99998 0.811492C6.90877 0.811492 6.02197 1.74949 6.02197 2.90589C6.02197 2.939 6.02271 2.9725 6.02416 3.00637ZM16 13.366H0V14.273H16V13.366ZM13.033 4.65424H10.8791V5.56121H13.033V4.65424ZM5.12088 4.65424H2.96704V5.56121H5.12088V4.65424ZM0 12.3635H2.0323L3.97746 6.44433H2.30768V7.35133H2.7917L1.44027 11.4566H0V12.3635ZM0.0879121 12.2679V12.2681H1.97033L3.85275 6.5398H3.85267L1.97032 12.2679H0.0879121ZM2.39559 7.25565V7.25586H2.91641L2.91648 7.25565H2.39559ZM3.52642 12.3635H12.4736L11.3051 6.44433H9.89009V7.35133H10.6289L11.4385 11.4566H4.56149L5.37107 7.35133H6.10988V6.44433H4.69486L3.52642 12.3635ZM11.5472 11.5519L10.7 7.25586H9.978V7.25565H10.7L11.5472 11.5519H11.5472ZM12.3648 12.2679L12.3648 12.2681H3.63518L3.63522 12.2679H12.3648ZM5.29999 7.25586L4.45279 11.5519H4.45274L5.29998 7.25565H6.02195V6.5398H6.02197V7.25586H5.29999ZM13.9677 12.3635H16V11.4566H14.5597L13.2083 7.35133H13.6923V6.44433H12.0225L13.9677 12.3635ZM15.9121 11.5521V12.2679H14.0297L12.1473 6.5398H12.1473L14.0297 12.2681H15.9121V11.5521H15.9121ZM13.6044 6.5398V7.25565H13.0835L13.0836 7.25586H13.6044V6.5398H13.6044ZM0.0879121 14.1773V14.1775H15.9121V13.4615H15.9121V14.1773H0.0879121ZM10.967 5.46553V5.46574H12.945V4.74971H12.945V5.46553H10.967ZM5.03296 4.74971V5.46553H3.05496V5.46574H5.03297V4.74971H5.03296ZM7.01208 3.13071C7.03716 3.69767 7.47199 4.15302 7.99996 4.15302C8.54394 4.15302 8.98899 3.6697 8.98899 3.07895C8.98899 3.06399 8.9887 3.04911 8.98814 3.03429C8.98871 3.04919 8.989 3.06416 8.989 3.07921C8.989 3.66996 8.54395 4.15327 7.99997 4.15327C7.47192 4.15327 7.03704 3.69779 7.01208 3.13071ZM7.99996 2.72094C7.81863 2.72094 7.6703 2.88203 7.6703 3.07895C7.6703 3.08438 7.67041 3.08978 7.67063 3.09515C7.67042 3.08986 7.67031 3.08455 7.67031 3.07921C7.67031 2.88229 7.81865 2.7212 7.99997 2.7212C8.1763 2.7212 8.32146 2.87357 8.3293 3.06301C8.32158 2.87345 8.17637 2.72094 7.99996 2.72094ZM8.24172 3.07919V3.07921C8.24172 3.22339 8.13274 3.34174 7.99997 3.34174C7.8672 3.34174 7.75822 3.22339 7.75822 3.07921C7.75822 2.93502 7.8672 2.81667 7.99997 2.81667C8.13275 2.81667 8.24175 2.93506 8.24172 3.07919ZM6.92303 3.07921C6.92303 3.72268 7.40748 4.24874 7.99997 4.24874C8.5925 4.24874 9.07691 3.72268 9.07691 3.07921C9.07691 2.43573 8.5925 1.90967 7.99997 1.90967C7.40744 1.90967 6.92303 2.43573 6.92303 3.07921Z" fill="#CDEFEA"/>
</svg>
